<svg class="not-prose h-60 w-auto" width="60" height="60" viewBox="-2 -2 64 64"><defs><filter x="-5.8%" y="-4.2%" width="111.7%" height="111.7%" filterUnits="objectBoundingBox" id=":R4l6l:filter"><feOffset dx="0" dy="1" in="SourceAlpha" result=":R4l6l:shadowoffset"></feOffset><feGaussianBlur stdDeviation="1" in=":R4l6l:shadowoffset" result=":R4l6l:shadowblur"></feGaussianBlur><feColorMatrix values="0 0 0 0 0   0 0 0 0 0   0 0 0 0 0  0 0 0 0.25 0" type="matrix" in=":R4l6l:shadowblur" result=":R4l6l:shadowmatrix"></feColorMatrix><feMerge><feMergeNode in=":R4l6l:shadowmatrix"></feMergeNode><feMergeNode in="SourceGraphic"></feMergeNode></feMerge></filter><linearGradient x1="0%" y1="0%" x2="100%" y2="100%" id=":R4l6l:gradient"><stop offset="0%" stop-color="#C1CFD8"></stop><stop offset="100%" stop-color="#88A5B3"></stop></linearGradient></defs><g filter="url(#:R4l6l:filter)"><path d="M51,54 L51,57 C51,58.6568542 49.6568542,60 48,60 L45,60 C43.3431458,60 42,58.6568542 42,57 L42,54 L51,54 Z M18,21 L18,40.5 C18,41.3284271 18.6715729,42 19.5,42 L39,42 L39,51 L15,51 C11.6862915,51 9,48.3137085 9,45 L9,21 L18,21 Z M60,45 L60,48 C60,49.6568542 58.6568542,51 57,51 L54,51 L54,42 L57,42 C58.6568542,42 60,43.3431458 60,45 Z M51,15 L51,39 L42,39 L42,19.5 C42,18.6715729 41.3284271,18 40.5,18 L21,18 L21,9 L45,9 C48.3137085,9 51,11.6862915 51,15 Z M6,9 L6,18 L3,18 C1.34314575,18 0,16.6568542 0,15 L0,12 C0,10.3431458 1.34314575,9 3,9 L6,9 Z M18,3 L18,6 L9,6 L9,3 C9,1.34314575 10.3431458,-3.55271368e-15 12,-3.55271368e-15 L15,-3.55271368e-15 C16.6568542,-3.55271368e-15 18,1.34314575 18,3 Z" fill="url(#:R4l6l:gradient)"></path><path d="M9,9 L18,9 L18,18 L9,18 L9,9 Z" fill="#7D95A3"></path><path d="M42,42 L51,42 L51,51 L42,51 L42,42 Z" fill="#7D95A3"></path><path d="M51,54 L51,54.6 L42,54.6 L42,54 L51,54 Z M39,42.6 L19.5,42.6 C18.6715729,42.6 18,41.9284271 18,41.1 L18,40.5 C18,41.3284271 18.6715729,42 19.5,42 L39,42 L39,42.6 Z M18,21.6 L9,21.6 L9,21 L18,21 L18,21.6 Z M57,42 C58.6568542,42 60,43.3431458 60,45 L60,45.6 C60,43.9431458 58.6568542,42.6 57,42.6 L54,42.6 L54,42 L57,42 Z M51,15.6 C51,12.2862915 48.3137085,9.6 45,9.6 L21,9.6 L21,9 L45,9 C48.3137085,9 51,11.6862915 51,15 L51,15.6 Z M6,9.6 L3,9.6 C1.34314575,9.6 0,10.9431458 0,12.6 L0,12 C0,10.3431458 1.34314575,9 3,9 L6,9 L6,9.6 Z M18,3.6 C18,1.94314575 16.6568542,0.6 15,0.6 L12,0.6 C10.3431458,0.6 9,1.94314575 9,3.6 L9,3 C9,1.34314575 10.3431458,-3.55271368e-15 12,-3.55271368e-15 L15,-3.55271368e-15 C16.6568542,-3.55271368e-15 18,1.34314575 18,3 L18,3.6 Z M9,9 L18,9 L18,9.6 L9,9.6 L9,9 Z M42,42 L51,42 L51,42.6 L42,42.6 L42,42 Z" fill-opacity="0.25" fill="#FFFFFF"></path><text font-family="Gabarito" font-size="10.5" font-weight="700" fill="#00000099"><tspan x="27%" y="77%">beta</tspan></text></g></svg>